<?xml version="1.0" encoding="UTF-8" standalone="no"?>
<!-- Generator: Adobe Illustrator 11 Build 197, SVG Export Plug-In . SVG Version: 6.0.0 Build 78)  -->

<svg
   xmlns:a="http://ns.adobe.com/AdobeSVGViewerExtensions/3.0/"
   xmlns:stRef="http://ns.adobe.com/xap/1.0/sType/ResourceRef#"
   xmlns:xapMM="http://ns.adobe.com/xap/1.0/mm/"
   xmlns:xapGImg="http://ns.adobe.com/xap/1.0/g/img/"
   xmlns:xap="http://ns.adobe.com/xap/1.0/"
   xmlns:pdf="http://ns.adobe.com/pdf/1.3/"
   xmlns:ns0="http://ns.adobe.com/SaveForWeb/1.0/"
   xmlns:ns="http://ns.adobe.com/Variables/1.0/"
   xmlns:i="http://ns.adobe.com/AdobeIllustrator/10.0/"
   xmlns:x="adobe:ns:meta/"
   xmlns:dc="http://purl.org/dc/elements/1.1/"
   xmlns:cc="http://creativecommons.org/ns#"
   xmlns:rdf="http://www.w3.org/1999/02/22-rdf-syntax-ns#"
   xmlns:svg="http://www.w3.org/2000/svg"
   xmlns="http://www.w3.org/2000/svg"
   xmlns:sodipodi="http://sodipodi.sourceforge.net/DTD/sodipodi-0.dtd"
   xmlns:inkscape="http://www.inkscape.org/namespaces/inkscape"
   i:viewOrigin="36 120"
   i:rulerOrigin="0 0"
   i:pageBounds="0 128 128 0"
   i:viewBoxInterpretation="asCropBox"
   width="12"
   height="12"
   viewBox="-35.5 -7.5 12 12"
   enable-background="new -35.5 -7.5 128 128"
   xml:space="preserve"
   id="svg2"
   version="1.1"
   inkscape:version="0.48.3.1 r9886"
   sodipodi:docname="attachment-col.svg"><defs
   id="defs57" /><sodipodi:namedview
   pagecolor="#ffffff"
   bordercolor="#666666"
   borderopacity="1"
   objecttolerance="10"
   gridtolerance="10"
   guidetolerance="10"
   inkscape:pageopacity="0"
   inkscape:pageshadow="2"
   inkscape:window-width="1024"
   inkscape:window-height="713"
   id="namedview55"
   showgrid="false"
   inkscape:zoom="20.85965"
   inkscape:cx="9.7627118"
   inkscape:cy="10.36383"
   inkscape:window-x="-3"
   inkscape:window-y="-3"
   inkscape:window-maximized="1"
   inkscape:current-layer="svg2" />
        <metadata
   id="metadata4">
                <ns:variableSets>
                        <ns:variableSet
   locked="none"
   varSetName="binding1">
                                <ns:variables />
                                <ns:sampleDataSets />
                        </ns:variableSet>
                </ns:variableSets>
                <ns0:sfw>
                        <ns0:slices />
                        <ns0:sliceSourceBounds
   y="7"
   x="36"
   height="113"
   width="54"
   bottomLeftOrigin="true" />
                </ns0:sfw>
<?xpacket begin='ÿ' id='W5M0MpCehiHzreSzNTczkc9d'?><x:xmpmeta
   x:xmptk="XMP toolkit 3.0-29, framework 1.6">

<metadata
   id="metadata59"><rdf:RDF>

 <rdf:Description
   rdf:about="uuid:9c3a7f82-ee40-11da-b357-001451315092">
  <pdf:Producer>Adobe PDF library 6.66</pdf:Producer>
 </rdf:Description>

 <rdf:Description
   rdf:about="uuid:9c3a7f82-ee40-11da-b357-001451315092">
 </rdf:Description>

 <rdf:Description
   rdf:about="uuid:9c3a7f82-ee40-11da-b357-001451315092">
 </rdf:Description>

 <rdf:Description
   rdf:about="uuid:9c3a7f82-ee40-11da-b357-001451315092">
  <xap:CreatorTool>Illustrator</xap:CreatorTool>
  <xap:CreateDate>2006-05-28T13:53:04+02:00</xap:CreateDate>
  <xap:ModifyDate>2006-05-28T14:15:44Z</xap:ModifyDate>
  <xap:MetadataDate>2006-05-28T13:53:04+02:00</xap:MetadataDate>
  <xap:Rating>1</xap:Rating>
  <xap:Thumbnails>
   <rdf:Alt>
    <rdf:li
   rdf:parseType="Resource">
     <xapGImg:format>JPEG</xapGImg:format>
     <xapGImg:width>124</xapGImg:width>
     <xapGImg:height>256</xapGImg:height>
     <xapGImg:image>/9j/4AAQSkZJRgABAgEASABIAAD/7QAsUGhvdG9zaG9wIDMuMAA4QklNA+0AAAAAABAASAAAAAEA
AQBIAAAAAQAB/+4ADkFkb2JlAGTAAAAAAf/bAIQABgQEBAUEBgUFBgkGBQYJCwgGBggLDAoKCwoK
DBAMDAwMDAwQDA4PEA8ODBMTFBQTExwbGxscHx8fHx8fHx8fHwEHBwcNDA0YEBAYGhURFRofHx8f
Hx8fHx8fHx8fHx8fHx8fHx8fHx8fHx8fHx8fHx8fHx8fHx8fHx8fHx8fHx8f/8AAEQgBAAB8AwER
AAIRAQMRAf/EAaIAAAAHAQEBAQEAAAAAAAAAAAQFAwIGAQAHCAkKCwEAAgIDAQEBAQEAAAAAAAAA
AQACAwQFBgcICQoLEAACAQMDAgQCBgcDBAIGAnMBAgMRBAAFIRIxQVEGE2EicYEUMpGhBxWxQiPB
UtHhMxZi8CRygvElQzRTkqKyY3PCNUQnk6OzNhdUZHTD0uIIJoMJChgZhJRFRqS0VtNVKBry4/PE
1OT0ZXWFlaW1xdXl9WZ2hpamtsbW5vY3R1dnd4eXp7fH1+f3OEhYaHiImKi4yNjo+Ck5SVlpeYmZ
qbnJ2en5KjpKWmp6ipqqusra6voRAAICAQIDBQUEBQYECAMDbQEAAhEDBCESMUEFURNhIgZxgZEy
obHwFMHR4SNCFVJicvEzJDRDghaSUyWiY7LCB3PSNeJEgxdUkwgJChgZJjZFGidkdFU38qOzwygp
0+PzhJSktMTU5PRldYWVpbXF1eX1RlZmdoaWprbG1ub2R1dnd4eXp7fH1+f3OEhYaHiImKi4yNjo
+DlJWWl5iZmpucnZ6fkqOkpaanqKmqq6ytrq+v/aAAwDAQACEQMRAD8A9U4q7FXYq7FXYqsklRBV
jiqSar5v0qwX97Oik7KKipPgPH6K4qk7+cr64J+q2UzIekjr6Y+6Ro2/4XDSrota1hjWURxg/wAp
5H/iI/XjSLREeragDX1I28Aag/qUfjjS2i4/MM8VPrMJRT+2N1+/p/w2BKa2mqWtyPgYE9x3+7FU
WCCKjpireKuxV2KuxV2KuxV2KoHUtVtrGFpJXChQSSSB069cVefXfmPWPMMrJph+racCQ98wryoe
kSH7X+s22GlV9O0O0tX5xRtNdN9u5lJklb/ZHp8hthQip5YLf+/mjiI34sw5f8CKnAhBSa5pqdJD
J/qq3/GwGNppSXzJpn+7DJF/rRsw+9OeK0mNjqdvMpezuElX9oIwYfJh/XChGJFDMwMB+rXI3FPs
Mfl2PywJTDT9cmhm+rXo4SdiehHSte49/vwJZDHIrryU1GKrsVdirsVdirsVQmoXsdrAzseg/wAx
iry65urjzZqUgZiuh2z0fiaeu678Qf5B/n7GlZL6NpY2YmuSILZABHGooSB0AAxQkN1rmpai5t7B
DBb/AMqbEjxZsC0r2Pku8nAeZjRtzTb8W3P3YpTaPyDFx+Lc/Nv7MVULnyFQExkg9gD/AM1D+OKs
c1PypeW0vqqrCVfszRVjlHyI6/jiqzTvNFzZyLb6wecDHil+opxPYSqP+JDCimax+hqEAhlarU5Q
Tr1G2xB/zriqI0XU57a5Nhdmjp9k9iD0I9j+BwJZOrBgCOhxVvFXYq7FWmYKpJ6DFXmn5gaxcXVx
Dotm1J7xvTLD9lOjtt93yrhCpto2mWlhYIKBLW1TavfjuzH9eKEhnkvPMWpfCCtqh4xqPD/mo4Es
30Xy7bWkK1Qch9w+X9cVTtUVR8Ipiq7FXYqoXFnBOhV1BB7HpirB/NXlFGR5I0BqKMD0Ps39cVYt
5Z1SbTL9dHumP1eQn6jI3VHB3jP09Mkgs41KFruyW7hFbq2qwA/aH7afSOnvgVOvL+pLd2inlU0G
/jtUH6RgSm2KuxV2KoLVbj0LR3HUDb59B+OKvL/L6HU/M1/qB+JYSLa2ruNzQkfd+OSQWQ+brhob
KDToPt3LUIH8q0/WxGAqnHlTRo7a1RyNyOv6z9OBLJMVdirsVdirsVU54VljKMAajviryj8wNBaH
lPDVXQh0YdQRup+e1MIVkXlDVf0hpsFwSOUyfvAO0ifC344UK2iP9R1q5shtGH5RDoOMnxqB8jUZ
FLMuQ48u1K4q3irsVY95wufR0+Rgfsgn/gVJ/XirEfy3gA01ZSN5ZZJCfkAv8MkhHamhuvNccfaC
JQB/lMf+b8iUs8to1jhVVFABsPYbDFVXFXYq7FXYq7FXYqxrzlZLNYuab0IH0io/EYqw38tpSkdz
bV2guTx+Tin/ABrkkJ/qreh5itZgf7yGhHvG/Kv44ClmPL/Rvw/HAqvirsVYn59J/R0n+q36hiqS
flyP9w8P/PT/AInkigouIf8AO43R8DAAPminIpZ1H/dr8hiq7FXYq7FXYq7FXYqlPmID6k30frxV
51+Xo/0zUf8AjPH+tsKCyLzIaatpoH8s1f8AgR/TAoZbU/Ua13/sxSry3UMX22A+dB+vFVL9JWf+
/F/4Jf64qxrzzIkmlu6GqlWofoGKpT+XYpo8P/PT/ieEoRUP/KYXf+tB/wAQGBLOY/7tfkMVXYq7
FXYq7FVOWaOMVc0GKqP6Ss/9+L/wS/1xVL9cnimsGaNgwBUGhB7+2KsA/L4f6XqH/GeP9bYUFP8A
zJ/x2NN/1Zv+I4Est/48fo/hirzv80dTv7SANbTNE/NRyU70IqcIVkSWkBspGKnkGABqa9vfFDG2
uZ5/LsplbkeLfgaYEph+XgppEP8Az0/4nkihXg/5TC8/1oP+IDIpZ1H/AHa/IYquxV2KuxV2KsM/
MW8ubbSbiSByjrG5UjsdgD9FcVQPk9Bd6DbXFyTLM8BZnYmpNTvhQo2lxMbq9hLH043CqPbrT8MC
Uu/L4f6Vf/8AGeP9bYUFPvMp/wBzWmjwWU/8LgUMt/48fo/hil5n+bQrbr/xkX/iOEKzGMf6BL/r
D+GKGHxf8o5L/qv+vAlN/wAvh/uJh/56f8TwlCrD/wAphef60H/EBgSzqP8Au1+QxVdirsVdirsV
YN+Zn/HGuv8AjE/6xiqn5FH/ADrVp/zDn9ZwoQVp/wAdHUP+Mg/jgShPy/H+k33/ABmj/W2FBTrz
L/x29N/1Jf1YEsu/48fo/hirzT82BWBf+Mi/8RwhWYxj/QJf9YfwxQw6L/lHJf8AVf8A4lgSnPkA
f7iYf+en/E8khfB/ymF5/rw/8RGRSzqP+7X5DFV2KuxV2KuxVg/5l/8AHIuf+MbfrGKrPI4/51u0
/wCYf+JwoQFp/wAdHUf+Mo/jgShvy/H+kX3/ABmj/W2FCceZT/uc04f5En6jill3/Hj9H8MCvNvz
VFYl/wBdf+I4QrMIx/oEn+sP4YoYbD/yjkn+q/8AxLAlO/II/wBxUX/PT/ieEobg/wCUwvP9eH/i
IwJZ1H/dr8hiq7FXYq7FXYqwf8yf+OTcf8Y2/WuKu8kj/nXbX/mH/icJQltr/wAdHUf+Mo/jgSoe
QB+/vf8AjNH+tsKE28zf8d7Tv+Mcn6jgSy7/AI8fo/hirzf80hWNf9df+I4QrMI/94ZP9YfwxQw2
H/lHJP8AVf8A4lgSnnkMf7i4v+en/E8KFtv/AMphef68P/ERgSzuP+7X5DFV2KuxV2KuxVhH5kf8
cuf/AFG/4kuKt+Sx/wA69a/8YP4nChLLb/jpaj/xlH8cCVHyAP315/xlj/W2SQmnmb/jvaf/AMY5
P1HAUsu/48fo/hgV5x+aAqq/66/8RwhWYx/7wyf6w/hihhcP/KOSf6r/APEsCU+8iD/cXF/z0/4n
hKFlv/ymF7/xki/4iMCWdR/3a/IYquxV2KuxV2KsJ/Mb/jmTf6h/4kuKrvJo/wCdftv+MH8ThKEq
tv8Ajpaj/wAZR/HAlT8gD95d/wDGWP8A42woTPzN/wAd7T/9ST9RwKy3/jx+j+GKXnX5mioX/XX/
AIjhCswjH+gyf6w/hihhUP8Ayjsn+q//ABLAlkHkYf7jIv8Anp/xLCUKNv8A8phe/wDGSL/iIwJZ
3H/dr8hiq7FXYq7FXYqwr8xP+OdL/qn/AIkuKr/J4/3AW3/GD+OFCUW//HT1H/jKP44ErfII+O7/
AOMsf8cKEx8z/wDHf0//AFJP+I4Est/48fo/hirzv8yxUr/rr/xHCFZhGP8AQZP9YfwxQwmD/lHZ
Pk//ABLAlkXkgf7jYv8AZ/8AEsJQh7f/AJTC8/4yRf8AERgSzuP+7X5DFV2KuxV2KuxVhX5h/wDH
Pl/1T/xJcVVfKI/3BW3/ABgP68KEnt/+OnqX/GUfxwJa8gj4rr/jJH/HChH+Z/8Ajv6f/qSf8RwK
y3/jx+j+GKXnv5kCrJ/rD/iOEKzCP/eKT/WH8MUMHg/5R2T5N/xLAlkvkkf7jYv9n/xLCUIS3/5S
+8/14f8AiIwJZ3H/AHa/IYquxV2KuxV2KsL/ADB/3gk+X/Gy4qr+Ux/uDt/+MP8AHChJIP8Ajqal
/wAZR/HAlvyEN7n/AIyR/wAcKEb5n/479h/qSf8AEcCWW/8AHj9H8MVeffmKKyJ/rD/iOEKzCMf6
FJ/rD+GKGDQf8o7J8m/4lgSyfyWP9x0f+z/4lhKEFbf8pfef68P/ABEYEs7j/u1+QxVdirsVdirs
VYZ+YH+8T/L/AI3XFUR5VFNEt/8AjD/HChIoP+OpqX/GUfxwJX+Qh/vR/wAZI/44UIvzP/x37D/V
k/4jgSy3/jx+j+GKsA/MMVlT/WH/ABHCFZfGP9Ck/wBYfwxQwWD/AJR6T5N/xLAllPk0f7j4/wDZ
/wDEsJQgLf8A5S+8/wBeH/iIwJZ3H/dr8hiq7FXYq7FXYqwzz9/vG3+f7a4qi/Kw/wBwsH/GH+OF
DH4f+OrqX/GUfxwJVfIY2n/14/44UIrzR/x37D/Vk/4hgSyz/jx+j+GKsB/MAVmT/WH/ABHCFZfH
/vFJ/rD+GKGCW/8Ayjz/ACb/AIlgSyvyeP8AQI/9n/xLCUJdbf8AKXXf+tD/AMQGBLO4/wC7X5DF
V2KuxV2KuxVhvn3/AHlP0f8AE1xVGeWB/uHg/wCMX8cKGPRf8dbU/wDjKP44Eq3kMfDP/rx/xwoR
Hmj/AI79h/qyf8QwJZZ/x4/R/DFWB+fRW4T/AFh/xHCFZdH/ALxSf6w/hihglv8A8o8/yb/iWBLL
PKA/0GP/AGf/ABLCUJZbf8pdd/60P/EBgSzuP+7X5DFV2KuxV2KuxVh3nv8A3m+kf8TXFUb5aFNI
h/4xfxwoY5F/x1tT/wCMo/UcCUR5DHwTf68f8cKFbzT/AMd+w/1Zf+I4Ess/48fo/hirBPPYrcp8
x/xHCFZdH/vFJ/rD+GKGB2//ACjz/Jv+JYEsu8pD/Qo/9n/xLCUJVa/8pbdf60H/ABAYEs7j/u1+
QxVdirsVdirsVYf55/uB8x/xNcVR/lwf7iYf+MX8cJQxmP8A46+p/wDGUfxwJRXkQfu5f9aP+OFC
p5p/479h/qy/8RwJZZ/x4/R/DFWDeeBW7j+f/GmEKy2P/eKT/WH8MUMCt/8AlHn+Tf8AEsCWX+Ux
/oaf7P8A4lhKEptv+Uuuv9aD/iAwJZ3H/dr8hiq7FXYq7FXYqxDzx/cr/rL/AMnFxVMPLwppcP8A
xi/jhKAxhP8Ajr6n/wAZh/HAlF+RR+5k/wBaP+OFC/zT/wAd6w/1Zf8AiOBLK/8Ajx+j+GKsI86i
t5H8/wDjTCFZZGP9Ck/1h/DFDAbb/lH3+Tf8SwJZh5WI+qIv+uPxrhKAlUSGPzdPy25+iw+gBf4Y
Es5j/u1+QxVdirsVdirsVYh52IKIvfkv/Jxf6YqmehIV0yKv++q/fuMKGKRMG1fVCP8Af1PuqMCU
d5FH7iT/AFo/44UN+av+O9p/+rL/AMRwJZX/AMeP0fwxVhPnP/e6Me//ABphCsqt256e5Hcq330x
QwvTLYy6LNF+0vNT7VJH6yMCU28n3tYOJPxLRqd/5W/VhQiPMVu1tqVtqUf2D+6dvAMeSH/gtvpw
JZPY3CT26Op2IqMVRGKuxV2KtMwVST2xVhWtM2o6rHbxmoDUr8q1P4k/RhCCyJ3is9Pkkb4Yo0r/
ALFBgVhGhq8ttc3kn2pZDIT7lgP64pTfyPHS2ZvEp+Ar/HChR80Py8x2SfyRyN99R/DAll3E/Uqd
+mKsP88QlZY5OyspJ9t1OKp35flE+nIvd4gv+yTbCUJNpcQi1a/sX2Ersy18JRzX7mGBKV28smla
0yMKRysWUe52ZcIQWar9WvbM281HhlX4SfA4ql9nPdaPP9XuqtAx/dTda/P3p1H0jAlkcF1DMgZG
BB6Gu2Kq2KrWkRep+jFUh1jWxT6vbfHI23w7/dTviq3RtJMFZZaG4k6/5I8MKEq876tVY9HtTWWU
j1adlrsD/rH8PngSpSwCw8vrGuzy/ZPTYDiPvZq4qnXla19GwjJFOVZKe3QfgMJQEhvX+uecGUbi
BFir7sa/8bnAlnPH/Rvor+OKpF5xsDcWTEDehH39P+GAxVKPJ+oExemT8aHmB+DDChG+Y7dra9t9
Uh+waJKw7Kxqrf7Fv14FUvMOlR6nZLdwij05GnZh/nQ4pSrQfMD20n1K++Eg0qfHChl6yRTwcWCz
QOOh3GKof9HLE3K0nkgr1Q/GPxI/GuBbb/3MjYSxEeJqD+AxW1N7LU5/hnuQqd1Qdf8AiOKoqy0y
3tz+6XlIesjbt9/bFUF5i8zWukwtBCRLfsNkG4Wvdv6d8VSDy3o9zeXbX96S0jnkzN13/ifwGKUw
1EnUtUjtYv7pCBUdAq9/4/dhCCyKWWGx06SZ/hijT/hVHbArE/J0El3fTX0g+OZ2kPh1PT/ZNiln
/EcePalMVQ9/brPbOh7gjFXnD+rpGtk0okjEgduXRh9OEILNrd7a+szBJRoJlPAnpvsQcVSyyll0
q7awuiTC391I3cePzHRvvwJUte8rRXi+tbijdRx6j5eI9sVY3Dfa5oz8TV4Qd61K/f2+nFU6tPPN
i4AuYniam7L8Qr8uuFCYR+bNAZeRuuA8GR6/cAcCqc/nXQYRWN5LluwjQqPvfj+rFUlvvOWs6hW3
0+H6tGdiU+J/pc0AxSq6H5TmlkFzdmpJ5cjuK+O/U++Kp/qd5FZW/wBUth+8bYgdd/4nFVXQ9KaB
fUl/3ol3f/JXwwoSbzxqpnki0a1NWYgzU7Dqqn/iR+jAlPvLGmra2SbUqBT5Dp/XFU8xV2KsW826
Et1A0iCjDevhTofo6HFUg8vay9vKbK8qrA038fEf5++FDLpktr63ENz84ph1U9jXFUHHNfaUwjuR
6tofsTLuKfw+WBKOMOmainL4Sx6kbEfPv9+KpVd+SLKUlkA38BT8VI/ViqBbyAvLY0Hhyb/mnFUR
b+QrZTVxX58j+sgYqnFvoumWSVIWi770oPo2XFUNe60Wb6vYqXkOwIGKrtN0gxyCe5PqXJ3A6hSf
44UO8x6/Bo9mUUh72Ufu4/4n2H44FY95W0ae7umvrurySHkxbrvv95/Vil6DGgRAo7YquxV2KrZE
V1KnFWE+Z/LBJNxbji67gjt7H2/ViqW6P5kltH+qX4Khdqnt/n92FDL7W8SWLlE4kibqvUfSDiqi
+nWjHnBytZOxjNV/4E0p9BwKuUarEfgnjlUdC4YN+A/jilv6/rA29AN7hx/E4qsa51yXYIkfuxr/
ABb9WKqf6LuJ2DXlyWH8ibD7z/TChMLSyhhXjAgQftN/U4FSjXfOFlpytb2RFze9Cw+wh9yP1DFL
H9I0W/1W9+uXxLux5Hn+FR+pcVeh2VnHaxBEFKYqicVdirsVdiq141daMMVYxrvlKC6UtGtGHSm1
Pkf4HFWJNa65o0pMBYov7ND091/piqY2XngCiXkJr0Lp+sjCik4t/NOiSiv1gR+0gKnFUWmtaQ3S
9g+mRF/WRirUuvaJCKyX0NP8hvUP3JywKlt3570iGotopLpx0J/dp+NW/DFKSXeu+Y9a/dRn0LY7
cI6olPdupxVNNC8mEMstwKt13H6genzOKs0tbOG3jCooFPDFURirsVdirsVdirsVdiqGuLC2nWjo
D8xiqSX/AJOsrgkhRX3Ffx2b8cVSW48g0PwMR7Bv+ah/HFUL/gS4/nP3r/XFVWHyFIT8bn/ggP1B
sVTay8jWkZBdQT3qK/i39MVT600e0t6FUHId+p+84qjlVVFAKDFW8VdirsVdir//2Q==</xapGImg:image>
    </rdf:li>
   </rdf:Alt>
  </xap:Thumbnails>
 </rdf:Description>

 <rdf:Description
   rdf:about="uuid:9c3a7f82-ee40-11da-b357-001451315092">
  <xapMM:DocumentID>uuid:749E204FEFC411DA9064DAB41CCF8339</xapMM:DocumentID>
  <xapMM:InstanceID>uuid:26a751a1-ee39-11da-95ed-00112478973e</xapMM:InstanceID>
  <xapMM:Manager>AdobeARM</xapMM:Manager>
  <xapMM:DerivedFrom
   rdf:parseType="Resource">
   <stRef:instanceID>uuid:cbd6ed1b-ee37-11da-a7f6-00112478973e</stRef:instanceID>
   <stRef:documentID>uuid:C89EA84CEF4011DA8369AD67D9F1B96A</stRef:documentID>
   <stRef:manager>AdobeARM</stRef:manager>
   <stRef:manageTo>http://192.168.0.2:3703/soap/Oxygen/documents/wip_konqueror.ai</stRef:manageTo>
  </xapMM:DerivedFrom>
 </rdf:Description>

 <rdf:Description
   rdf:about="uuid:9c3a7f82-ee40-11da-b357-001451315092">
  <dc:format>image/svg+xml</dc:format>
  <dc:title>
   <rdf:Alt>
    <rdf:li
   xml:lang="x-default">wip_konqueror</rdf:li>
   </rdf:Alt>
  </dc:title>
 </rdf:Description>

<cc:Work
   rdf:about=""><dc:format>image/svg+xml</dc:format><dc:type
     rdf:resource="http://purl.org/dc/dcmitype/StillImage" /></cc:Work></rdf:RDF></metadata></x:xmpmeta>
                                                                                                                                                                                                                                                                                                                                                                                                                                                                                                                                                                                                                                                                                                                                                                                                                                                                                                                                                                                                                                                                                                                                                                                                                                                                                                                                                                                                                                                                                                                                                                                                                                                                                                                                                                                                                                                                                                                                                                                                                                                                                                                                <?xpacket end='w'?>
                        </metadata>
                <g
   id="svg1307"
   i:layer="yes"
   i:dimmedPercent="50"
   i:rgbTrio="#4F008000FFFF"
   transform="matrix(0.10646558,0,0,0.10646558,-32.261027,-7.4620663)">
                        <path
   i:knockout="Off"
   d="M 54,86 V 23 C 54,10.317 43.682,0 31,0 18.318,0 8,10.317 8,23 8,23 8,26.655 8,27.202 7.684,27.089 7.354,27 7,27 H 3 c -1.654,0 -3,1.346 -3,3 v 56 c 0,14.888 12.112,27 27,27 14.888,0 27,-12.112 27,-27 z M 27,103 C 21.7,103 17.018,100.512 13.897,96.698 17.312,99.965 21.914,102 27,102 32.086,102 36.688,99.965 40.102,96.698 36.982,100.512 32.3,103 27,103 z M 39,27 c -1.654,0 -3,1.346 -3,3 v 53 c 0,4.963 -4.037,9 -9,9 -4.962,0 -9,-4.037 -9,-9 V 23 c 0,-7.168 5.832,-13 13,-13 7.168,0 13,5.832 13,13 0,0 0,3.679 0,4.202 C 43.684,27.089 43.354,27 43,27 h -4 z"
   id="path7"
   inkscape:connector-curvature="0"
   style="opacity:0.05;fill:#323232" />
                        <path
   i:knockout="Off"
   d="M 53,86 V 23 C 53,10.869 43.131,1 31,1 18.869,1 9,10.869 9,23 v 60 c 0,9.926 8.075,18 18,18 9.926,0 18,-8.074 18,-18 V 30 c 0,-1.103 -0.896,-2 -2,-2 h -4 c -1.104,0 -2,0.897 -2,2 V 83 C 37,88.515 32.514,93 27,93 21.486,93 17,88.514 17,83 V 23 c 0,-7.72 6.28,-14 14,-14 7.72,0 14,6.28 14,14 v 63 c 0,9.926 -8.074,18 -18,18 C 17.075,104 9,95.926 9,86 V 30 C 9,28.897 8.103,28 7,28 H 3 c -1.103,0 -2,0.897 -2,2 v 56 c 0,14.336 11.663,26 26,26 14.336,0 26,-11.663 26,-26 z"
   id="path9"
   inkscape:connector-curvature="0"
   style="opacity:0.17000002;fill:#323232" />
                        <path
   i:knockout="Off"
   d="M 52,86 V 23 C 52,11.421 42.58,2 31,2 19.42,2 10,11.421 10,23 v 60 c 0,9.374 7.626,17 17,17 9.374,0 17,-7.626 17,-17 V 30 c 0,-0.553 -0.447,-1 -1,-1 h -4 c -0.553,0 -1,0.447 -1,1 V 83 C 38,89.065 33.065,94 27,94 20.935,94 16,89.065 16,83 V 23 C 16,14.729 22.729,8 31,8 39.271,8 46,14.729 46,23 V 86 C 46,96.477 37.477,105 27,105 16.523,105 8,96.477 8,86 V 30 C 8,29.447 7.553,29 7,29 H 3 c -0.553,0 -1,0.447 -1,1 v 56 c 0,13.785 11.215,25 25,25 13.785,0 25,-11.215 25,-25 z"
   id="path11"
   inkscape:connector-curvature="0"
   style="opacity:0.22999998;fill:#323232" />
                        
                                <radialGradient
   id="XMLID_7_"
   cx="-185"
   cy="11"
   r="118.3596"
   fx="-185"
   fy="11"
   gradientTransform="matrix(-1,0,0,-1,-146,109)"
   gradientUnits="userSpaceOnUse">
                                <stop
   offset="0"
   style="stop-color:#F2F2F2"
   id="stop14" />
                                <stop
   offset="1"
   style="stop-color:#C4C4C4"
   id="stop16" />
                                <a:midPointStop
   offset="0"
   style="stop-color:#F2F2F2" />
                                <a:midPointStop
   offset="0.5"
   style="stop-color:#F2F2F2" />
                                <a:midPointStop
   offset="1"
   style="stop-color:#C4C4C4" />
                        </radialGradient>
                        <path
   i:knockout="Off"
   d="M 27,109 C 40.255,109 51,98.255 51,85 V 22 C 51,10.954 42.046,2 31,2 19.954,2 11,10.954 11,22 v 60 c 0,8.836 7.164,16 16,16 8.836,0 16,-7.163 16,-16 V 29 H 39 V 82 C 39,88.617 33.617,94 27,94 20.383,94 15,88.617 15,82 V 22 C 15,13.178 22.178,6 31,6 39.822,6 47,13.178 47,22 V 85 C 47,96.028 38.027,105 27,105 15.972,105 7,96.027 7,85 V 29 H 3 v 56 c 0,13.255 10.745,24 24,24 z"
   id="path18"
   inkscape:connector-curvature="0"
   style="fill:url(#XMLID_7_)" />
                        
                                <linearGradient
   id="XMLID_8_"
   gradientUnits="userSpaceOnUse"
   x1="-174"
   y1="96"
   x2="-174"
   y2="6.0004001"
   gradientTransform="matrix(-1,0,0,-1,-146,109)">
                                <stop
   offset="0"
   style="stop-color:#E8E8E8"
   id="stop21" />
                                <stop
   offset="1"
   style="stop-color:#FFFFFF"
   id="stop23" />
                                <a:midPointStop
   offset="0"
   style="stop-color:#E8E8E8" />
                                <a:midPointStop
   offset="0.5"
   style="stop-color:#E8E8E8" />
                                <a:midPointStop
   offset="1"
   style="stop-color:#FFFFFF" />
                        </linearGradient>
                        <path
   i:knockout="Off"
   d="m 25,94 c 0.169,0 0.333,-0.019 0.5,-0.025 C 19.116,93.709 14,88.447 14,82 L 15,22 C 15,13.347 20.91,6.293 29.5,6.025 29.332,6.021 29.169,6 29,6 20.178,6 13,13.178 13,22 v 60 c 0,6.617 5.383,12 12,12 z M 49,22 V 85 C 49,98.088 38.523,108.721 25.5,108.987 25.667,108.99 25.833,109 26,109 39.255,109 50,98.255 50,85 L 51,22 C 51,10.954 41.046,2 30,2 29.831,2 29.668,2.021 29.5,2.025 40.312,2.293 49,11.123 49,22 z M 42,82 V 29 H 41 V 82 C 41,90.668 34.104,97.708 25.5,97.975 25.667,97.98 25.831,98 26,98 34.836,98 42,90.837 42,82 z m -17,23 c 0.169,0 0.332,-0.021 0.5,-0.025 C 14.704,104.705 6,95.859 6,85 V 29 H 5 v 56 c 0,11.027 8.972,20 20,20 z"
   id="path25"
   inkscape:connector-curvature="0"
   style="fill:url(#XMLID_8_)" />
                        
                                <linearGradient
   id="XMLID_9_"
   gradientUnits="userSpaceOnUse"
   x1="-179.25"
   y1="18.644501"
   x2="-179.25"
   y2="78.785599"
   gradientTransform="matrix(-1,0,0,-1,-146,109)">
                                <stop
   offset="0"
   style="stop-color:#C4C4C4"
   id="stop28" />
                                <stop
   offset="1"
   style="stop-color:#757575"
   id="stop30" />
                                <a:midPointStop
   offset="0"
   style="stop-color:#C4C4C4" />
                                <a:midPointStop
   offset="0.5"
   style="stop-color:#C4C4C4" />
                                <a:midPointStop
   offset="1"
   style="stop-color:#757575" />
                        </linearGradient>
                        <path
   i:knockout="Off"
   d="M 39.5,82 V 29 h -1 v 53 c 0,6.448 -5.116,11.709 -11.5,11.975 0.167,0.006 0.331,0.025 0.5,0.025 6.617,0 12,-5.383 12,-12 z"
   id="path32"
   inkscape:connector-curvature="0"
   style="fill:url(#XMLID_9_)" />
                        
                                <linearGradient
   id="XMLID_10_"
   gradientUnits="userSpaceOnUse"
   x1="-183.25"
   y1="9.5508003"
   x2="-183.25"
   y2="101.1498"
   gradientTransform="matrix(-1,0,0,-1,-146,109)">
                                <stop
   offset="0"
   style="stop-color:#C4C4C4"
   id="stop35" />
                                <stop
   offset="1"
   style="stop-color:#757575"
   id="stop37" />
                                <a:midPointStop
   offset="0"
   style="stop-color:#C4C4C4" />
                                <a:midPointStop
   offset="0.5"
   style="stop-color:#C4C4C4" />
                                <a:midPointStop
   offset="1"
   style="stop-color:#757575" />
                        </linearGradient>
                        <path
   i:knockout="Off"
   d="m 46.5,22 v 63 c 0,10.859 -8.705,19.706 -19.5,19.975 0.168,0.004 0.331,0.025 0.5,0.025 11.027,0 20,-8.972 20,-20 V 22 C 47.5,13.178 40.322,6 31.5,6 31.331,6 31.168,6.021 31,6.025 39.59,6.293 46.5,13.347 46.5,22 z"
   id="path39"
   inkscape:connector-curvature="0"
   style="fill:url(#XMLID_10_)" />
                        
                                <linearGradient
   id="XMLID_11_"
   gradientUnits="userSpaceOnUse"
   x1="-160.75"
   y1="4.4854002"
   x2="-160.75"
   y2="78.504997"
   gradientTransform="matrix(-1,0,0,-1,-146,109)">
                                <stop
   offset="0"
   style="stop-color:#C4C4C4"
   id="stop42" />
                                <stop
   offset="1"
   style="stop-color:#757575"
   id="stop44" />
                                <a:midPointStop
   offset="0"
   style="stop-color:#C4C4C4" />
                                <a:midPointStop
   offset="0.5"
   style="stop-color:#C4C4C4" />
                                <a:midPointStop
   offset="1"
   style="stop-color:#757575" />
                        </linearGradient>
                        <path
   i:knockout="Off"
   d="m 26.5,109 c 0.167,0 0.333,-0.01 0.5,-0.013 C 13.977,108.721 3.5,98.088 3.5,85 V 29 h -1 v 56 c 0,13.255 10.745,24 24,24 z"
   id="path46"
   inkscape:connector-curvature="0"
   style="fill:url(#XMLID_11_)" />
                        
                                <linearGradient
   id="XMLID_12_"
   gradientUnits="userSpaceOnUse"
   x1="-166.75"
   y1="16.382799"
   x2="-166.75"
   y2="105.2062"
   gradientTransform="matrix(-1,0,0,-1,-146,109)">
                                <stop
   offset="0"
   style="stop-color:#C4C4C4"
   id="stop49" />
                                <stop
   offset="1"
   style="stop-color:#757575"
   id="stop51" />
                                <a:midPointStop
   offset="0"
   style="stop-color:#C4C4C4" />
                                <a:midPointStop
   offset="0.5"
   style="stop-color:#C4C4C4" />
                                <a:midPointStop
   offset="1"
   style="stop-color:#757575" />
                        </linearGradient>
                        <path
   i:knockout="Off"
   d="M 26.5,98 C 26.669,98 26.833,97.98 27,97.975 18.397,97.708 11.5,90.668 11.5,82 V 22 C 11.5,11.123 20.188,2.293 31,2.025 30.832,2.021 30.669,2 30.5,2 c -11.046,0 -20,8.954 -20,20 v 60 c 0,8.836 7.164,16 16,16 z"
   id="path53"
   inkscape:connector-curvature="0"
   style="fill:url(#XMLID_12_)" />
                </g>
        </svg>